<svg width="21" height="11" viewBox="0 0 21 11" fill="none" xmlns="http://www.w3.org/2000/svg">
<path d="M20.8931 4.86446C20.7301 4.82202 20.6141 4.82202 20.5215 4.88623C20.1277 5.16591 19.7796 5.33894 19.5018 5.35962C19.3818 5.36089 19.2636 5.3866 19.1554 5.43492C19.0473 5.48325 18.9519 5.55301 18.8759 5.6393L18.5981 5.87653C18.5747 5.91898 18.4587 5.98536 18.0871 6.0278C18.018 6.07024 17.8093 6.17798 17.9019 6.28571C18.0237 6.44274 18.1323 6.60829 18.2266 6.78087C18.279 6.97975 18.2741 7.18794 18.2123 7.3845C18.1506 7.58107 18.0343 7.75909 17.875 7.90067C17.8062 7.97037 17.7194 8.02264 17.6228 8.05253C17.5262 8.08243 17.423 8.08897 17.3229 8.07153C17.2057 8.04976 17.0662 7.98556 17.0662 7.85388C17.0723 7.78827 17.0944 7.7248 17.1307 7.66825C17.1671 7.6117 17.2167 7.56354 17.276 7.5274C17.5105 7.24772 17.5104 7.01158 17.2526 6.7961C17.1671 6.75324 17.0714 6.7308 16.9742 6.7308C16.877 6.7308 16.7814 6.75324 16.6959 6.7961C16.3243 6.94737 16.2786 7.24772 16.5107 7.5274C16.5061 7.63901 16.4823 7.74922 16.4403 7.85388C16.3489 8.02582 16.186 8.07153 15.9774 8.04759C15.6257 7.87564 15.4675 7.5742 15.5085 7.05728C15.6643 6.83447 15.8446 6.62731 16.0465 6.43916C15.8444 6.10406 15.5375 5.83385 15.1663 5.66433C14.7946 5.8335 14.4871 6.10377 14.2849 6.43916C14.4733 6.6194 14.6229 6.83142 14.7256 7.06381C14.7725 7.36526 14.749 7.6667 14.4912 7.94638C14.2568 8.09656 14.0223 8.18253 13.795 8.0552C13.6332 7.90503 13.6332 7.72873 13.7258 7.53829C13.8082 7.43822 13.8447 7.31198 13.8274 7.18705C13.81 7.06211 13.7403 6.94859 13.6332 6.87119C13.5493 6.81333 13.4476 6.78209 13.3431 6.78209C13.2386 6.78209 13.1369 6.81333 13.053 6.87119C12.8186 7.04313 12.8456 7.25861 13.0308 7.53829C13.0478 7.63225 13.0398 7.72866 13.0073 7.81905C12.8221 8.18362 12.5385 8.14553 12.2185 8.01167C11.6395 7.49584 11.663 6.95825 12.3357 6.44025C12.4752 6.2683 12.4061 6.07459 12.1505 6.03215C11.6641 5.90265 11.2469 5.70568 10.9679 5.34329C10.6901 4.79917 10.3186 4.79917 10.0396 5.34329C9.76185 5.68718 9.32232 5.90265 8.85818 6.03215C8.60267 6.07459 8.53352 6.2683 8.64955 6.41848C9.34459 6.9626 9.34459 7.47408 8.78786 8.01167C8.46319 8.14117 8.18541 8.16294 8.00022 7.81905C7.95688 7.72333 7.94864 7.61702 7.97678 7.51652C8.16197 7.25861 8.18541 7.02246 7.95451 6.87119C7.86624 6.81324 7.7608 6.78213 7.6527 6.78213C7.5446 6.78213 7.43916 6.81324 7.35089 6.87119C7.11648 7.04313 7.11647 7.30649 7.28057 7.53829C7.32156 7.61825 7.33684 7.7075 7.32458 7.79532C7.31231 7.88315 7.27302 7.96583 7.21141 8.03344C6.9559 8.16294 6.74258 8.09764 6.51637 7.94747C6.40932 7.82567 6.33276 7.68331 6.29222 7.53067C6.25168 7.37804 6.24817 7.21894 6.28196 7.0649C6.37909 6.82835 6.52033 6.60953 6.69922 6.41848C6.49634 6.08356 6.18908 5.81345 5.81781 5.64365C5.46706 5.83698 5.16683 6.10012 4.93876 6.41413C5.15422 6.60038 5.33449 6.81889 5.47205 7.06055C5.54238 7.5557 5.38063 7.87891 5.03135 8.02909C4.79694 8.07262 4.63753 8.02909 4.54494 7.83538C4.51975 7.73642 4.50445 7.63551 4.49923 7.53393C4.73364 7.25425 4.66098 6.9539 4.31287 6.80263C4.22338 6.75969 4.1241 6.73728 4.02337 6.73728C3.92263 6.73728 3.82336 6.75969 3.73386 6.80263C3.49945 7.02028 3.47835 7.25425 3.71042 7.53393C3.7695 7.56405 3.81953 7.60741 3.85597 7.66006C3.8924 7.7127 3.91409 7.77297 3.91905 7.83538C3.94249 7.98664 3.80184 8.05303 3.66354 8.07262C3.5665 8.08555 3.46753 8.07669 3.37494 8.04677C3.28235 8.01685 3.19884 7.96675 3.13142 7.90067C2.96367 7.75966 2.84045 7.57889 2.77499 7.37777C2.70954 7.17665 2.70431 6.96277 2.75987 6.7591C2.85514 6.58819 2.97328 6.42913 3.11149 6.28571C3.20408 6.17689 2.99428 6.04848 2.90286 6.0278C2.53131 5.96251 2.41528 5.91898 2.41528 5.87653L2.13749 5.61753C1.96888 5.46471 1.74678 5.37319 1.5116 5.35962C1.23265 5.33894 0.861104 5.16591 0.467286 4.88623C0.41552 4.8551 0.356051 4.83677 0.294516 4.83296C0.232982 4.82915 0.17142 4.84 0.115663 4.86446C0.0641378 4.90217 0.0271536 4.95435 0.01025 5.01321C-0.00665362 5.07206 -0.00256742 5.13442 0.0218964 5.19094C1.46355 6.37169 1.94996 7.74505 2.066 8.46003H18.9439C19.0611 7.74941 19.5463 6.37169 20.961 5.20944C20.9957 5.15372 21.0078 5.08834 20.9951 5.02509C20.9824 4.96184 20.9458 4.90487 20.8919 4.86446" fill="#0C2340"/>
<path d="M1.3229 4.64899C1.76224 4.7419 2.18443 4.89444 2.57585 5.1017C2.70247 5.12857 2.83369 5.13093 2.96133 5.10865C3.08898 5.08637 3.21031 5.03992 3.31778 4.9722C4.36836 4.17976 5.5721 3.58068 6.86448 3.20706C7.07428 3.14286 7.18914 3.20706 7.11999 3.40077C6.57708 3.78857 6.17304 4.31962 5.96081 4.92432C5.96081 5.11803 6.10029 5.20508 6.40034 5.18332C6.49054 5.15054 6.58764 5.13741 6.68416 5.14496C6.78068 5.15251 6.87405 5.18052 6.95707 5.22685C7.1657 5.26929 7.32862 5.20508 7.46693 4.90038C7.6064 4.06025 8.16314 3.47913 8.97539 3.06994C9.34577 3.0275 9.50751 3.17877 9.4618 3.50524C9.16918 3.77438 8.95397 4.1074 8.83591 4.47378C8.85935 4.80026 9.04337 4.90908 9.34577 4.81767C9.53095 4.81767 9.67043 4.66749 9.78647 4.38237C9.85381 4.26542 9.95409 4.16764 10.0766 4.09947C10.1991 4.0313 10.3393 3.99529 10.4821 3.99529C10.6249 3.99529 10.7651 4.0313 10.8876 4.09947C11.0101 4.16764 11.1104 4.26542 11.1777 4.38237C11.2949 4.66205 11.4321 4.81767 11.595 4.81767C11.9196 4.90473 12.1048 4.79699 12.1283 4.47378C12.0106 4.10725 11.7953 3.77415 11.5024 3.50524C11.4555 3.17877 11.6196 3.03186 11.9888 3.06994C12.801 3.47913 13.3566 4.06025 13.4961 4.90038C13.6133 5.20182 13.7973 5.26603 13.9837 5.22685C14.071 5.18111 14.1681 5.15352 14.268 5.14601C14.368 5.13849 14.4685 5.15122 14.5627 5.18332C14.8639 5.20508 15.0034 5.11803 15.0034 4.92432C14.7915 4.31944 14.3874 3.78829 13.8442 3.40077C13.7739 3.20706 13.8911 3.14286 14.0997 3.20706C15.3923 3.58104 16.5963 4.18009 17.6476 4.9722C17.7548 5.0399 17.876 5.08633 18.0034 5.10862C18.1309 5.1309 18.2619 5.12854 18.3883 5.1017C18.7776 4.89104 19.2 4.73828 19.6401 4.64899C19.9191 4.60655 20.0117 4.41284 19.9425 4.1114C19.8377 3.96969 19.7001 3.85164 19.5396 3.76594C19.3791 3.68024 19.2 3.62908 19.0154 3.61624C18.9397 3.628 18.8621 3.62234 18.7894 3.59976C18.7166 3.57718 18.651 3.53837 18.5981 3.48674C18.3426 3.07756 17.8785 2.9263 17.2526 3.01336C16.9514 2.68688 16.5329 2.62594 16.0934 2.6477C15.6996 2.26029 15.2589 2.21241 14.7947 2.30273C14.2849 2.00129 13.8208 1.89355 13.4281 2.08508C12.7776 1.84893 12.2209 1.9349 11.7567 2.21458C11.6871 2.05718 11.5834 1.91478 11.4519 1.79626C11.3204 1.67774 11.164 1.58564 10.9925 1.52572V1.14048H11.595V0.580036H10.9925V0H9.97165V0.580036H9.36921V1.14048H9.97165V1.5279C9.79807 1.58459 9.63977 1.67552 9.50765 1.79444C9.37553 1.91335 9.27272 2.05743 9.20629 2.21676C8.96199 2.06726 8.68123 1.97698 8.38968 1.95416C8.09812 1.93135 7.80505 1.97674 7.53725 2.08617C7.11999 1.89246 6.65585 2.0002 6.16944 2.30382C5.70647 2.21785 5.26577 2.26138 4.87078 2.64879C4.40195 2.62703 4.01282 2.69123 3.71159 3.01444C3.0857 2.92738 2.62156 3.07865 2.36722 3.48783C2.31427 3.53963 2.2484 3.57854 2.17543 3.60112C2.10246 3.62371 2.02463 3.62927 1.94879 3.61733C1.76415 3.63002 1.58495 3.68111 1.42446 3.76682C1.26398 3.85253 1.12632 3.97067 1.02168 4.11249C0.952525 4.41393 1.04512 4.60764 1.3229 4.65008V4.64899ZM10.5049 1.83043C10.8296 1.83043 11.0851 2.13188 11.0851 2.51929C11.0851 2.90671 10.8296 3.22992 10.5049 3.22992C10.1803 3.22992 9.9025 2.90344 9.9025 2.51929C9.9025 2.13514 10.1815 1.83043 10.5049 1.83043Z" fill="#0C2340"/>
<path d="M2.066 11H18.9439V9.53631H2.066V11ZM17.044 9.85952C17.1369 9.85952 17.2278 9.8852 17.305 9.93327C17.3822 9.98135 17.4423 10.0497 17.4776 10.1295C17.5129 10.2094 17.5219 10.2972 17.5033 10.3818C17.4847 10.4663 17.4395 10.5439 17.3733 10.6045C17.3072 10.6652 17.2231 10.7062 17.1318 10.7224C17.0405 10.7386 16.946 10.7292 16.8605 10.6954C16.7749 10.6616 16.7021 10.605 16.6513 10.5327C16.6005 10.4604 16.574 10.3757 16.5751 10.2894C16.5767 10.1749 16.6267 10.0655 16.7145 9.98508C16.8023 9.90462 16.9206 9.85951 17.044 9.85952ZM13.8208 9.85952C13.9137 9.85952 14.0046 9.8852 14.0818 9.93327C14.159 9.98135 14.2191 10.0497 14.2544 10.1295C14.2897 10.2094 14.2987 10.2972 14.2801 10.3818C14.2615 10.4663 14.2163 10.5439 14.1501 10.6045C14.084 10.6652 13.9999 10.7062 13.9086 10.7224C13.8172 10.7386 13.7228 10.7292 13.6372 10.6954C13.5517 10.6616 13.4789 10.605 13.4281 10.5327C13.3773 10.4604 13.3508 10.3757 13.3519 10.2894C13.3535 10.1749 13.4035 10.0655 13.4913 9.98508C13.5791 9.90462 13.6974 9.85951 13.8208 9.85952ZM10.5061 9.85952C10.5991 9.85952 10.69 9.8852 10.7672 9.93327C10.8444 9.98135 10.9045 10.0497 10.9398 10.1295C10.9751 10.2094 10.984 10.2972 10.9655 10.3818C10.9469 10.4663 10.9017 10.5439 10.8355 10.6045C10.7694 10.6652 10.6853 10.7062 10.5939 10.7224C10.5026 10.7386 10.4082 10.7292 10.3226 10.6954C10.237 10.6616 10.1642 10.605 10.1134 10.5327C10.0626 10.4604 10.0361 10.3757 10.0373 10.2894C10.0388 10.1749 10.0889 10.0655 10.1767 9.98508C10.2644 9.90462 10.3828 9.85951 10.5061 9.85952ZM7.18914 9.85952C7.28212 9.85952 7.37299 9.8852 7.45021 9.93327C7.52743 9.98135 7.58751 10.0497 7.62282 10.1295C7.65812 10.2094 7.66706 10.2972 7.64849 10.3818C7.62992 10.4663 7.58468 10.5439 7.51853 10.6045C7.45237 10.6652 7.36829 10.7062 7.27696 10.7224C7.18564 10.7386 7.09119 10.7292 7.00563 10.6954C6.92007 10.6616 6.84727 10.605 6.79646 10.5327C6.74566 10.4604 6.71915 10.3757 6.72031 10.2894C6.72185 10.1749 6.77193 10.0655 6.85968 9.98508C6.94744 9.90462 7.06581 9.85951 7.18914 9.85952ZM3.94366 9.85952C4.03664 9.85952 4.12751 9.8852 4.20473 9.93327C4.28195 9.98135 4.34203 10.0497 4.37734 10.1295C4.41265 10.2094 4.42158 10.2972 4.40301 10.3818C4.38444 10.4663 4.3392 10.5439 4.27305 10.6045C4.20689 10.6652 4.12281 10.7062 4.03148 10.7224C3.94016 10.7386 3.84571 10.7292 3.76015 10.6954C3.67459 10.6616 3.60179 10.605 3.55098 10.5327C3.50018 10.4604 3.47367 10.3757 3.47483 10.2894C3.47637 10.1749 3.52645 10.0655 3.61421 9.98508C3.70196 9.90462 3.82033 9.85951 3.94366 9.85952Z" fill="#0C2340"/>
<path d="M18.9462 8.80501H2.066V9.19242H18.9462V8.80501Z" fill="#0C2340"/>
</svg>
